inDegrees=no
num_controls=7
num_derivatives=13
num_iterations=52
num_multipliers=7
num_parameters=0
num_slacks=7
num_states=26
objective=0.606176
objective_accelerations=0.057539
objective_balance=0.001936
objective_effort=0.013499
objective_height=0.522991
objective_ligament=0.010211
solver_duration=668.112470
status=Solve_Succeeded
success=true
DataType=double
version=3
OpenSimVersion=4.5
endheader
time	/jointset/ground_pelvis/pelvis_tilt/value	/jointset/ground_pelvis/pelvis_tx/value	/jointset/ground_pelvis/pelvis_ty/value	/jointset/hip_l/hip_flexion_l/value	/jointset/hip_l/hip_adduction_l/value	/jointset/hip_l/hip_rotation_l/value	/jointset/back/lumbar_extension/value	/jointset/patellofemoral_l/patellar_flexion_l/value	/jointset/knee_l/knee_flexion_l/value	/jointset/knee_l/knee_adduction_l/value	/jointset/knee_l/knee_rotation_l/value	/jointset/ankle_l/ankle_angle_l/value	/jointset/subtalar_l/subtalar_angle_l/value	/jointset/ground_pelvis/pelvis_tilt/speed	/jointset/ground_pelvis/pelvis_tx/speed	/jointset/ground_pelvis/pelvis_ty/speed	/jointset/hip_l/hip_flexion_l/speed	/jointset/hip_l/hip_adduction_l/speed	/jointset/hip_l/hip_rotation_l/speed	/jointset/back/lumbar_extension/speed	/jointset/patellofemoral_l/patellar_flexion_l/speed	/jointset/knee_l/knee_flexion_l/speed	/jointset/knee_l/knee_adduction_l/speed	/jointset/knee_l/knee_rotation_l/speed	/jointset/ankle_l/ankle_angle_l/speed	/jointset/subtalar_l/subtalar_angle_l/speed	/forceset/tau_hip_flexion_l	/forceset/tau_hip_adduction_l	/forceset/tau_hip_rotation_l	/forceset/tau_knee_flexion_l	/forceset/tau_ankle_angle_l	/forceset/tau_subtalar_angle_l	/forceset/tau_lumbar_extension	lambda_cid13_p0	lambda_cid13_p1	lambda_cid13_p2	lambda_cid13_p3	lambda_cid13_p4	lambda_cid13_p5	lambda_cid14_p0	/jointset/ground_pelvis/pelvis_tilt/accel	/jointset/ground_pelvis/pelvis_tx/accel	/jointset/ground_pelvis/pelvis_ty/accel	/jointset/hip_l/hip_flexion_l/accel	/jointset/hip_l/hip_adduction_l/accel	/jointset/hip_l/hip_rotation_l/accel	/jointset/back/lumbar_extension/accel	/jointset/patellofemoral_l/patellar_flexion_l/accel	/jointset/knee_l/knee_flexion_l/accel	/jointset/knee_l/knee_adduction_l/accel	/jointset/knee_l/knee_rotation_l/accel	/jointset/ankle_l/ankle_angle_l/accel	/jointset/subtalar_l/subtalar_angle_l/accel	gamma_cid13_p0	gamma_cid13_p1	gamma_cid13_p2	gamma_cid13_p3	gamma_cid13_p4	gamma_cid13_p5	gamma_cid14_p0
0.5	0.01343739833810812	0.06426580901069066	0.9323946211076743	0.2518980697764548	-0.1813018704560805	-0.2239860619267289	-0.4088619493665992	0.214427126248888	0.2144271262488703	0.03881986647226414	-0.03064436559632779	0.02512392392068614	0.1312261834775726	0.02561765602583784	0.07946660609707741	0.01726397546522391	-0.1995327082669119	0.003332401943224818	-0.02501138152743659	-0.04367180479813445	-0.1200603109441542	-0.1200603109441662	-0.01957244658897031	0.01235298971104815	0.0506973407538288	0.02669532270506119	-0.04649287269444841	0.08892787697865384	0.005764563505153708	-0.1161721086436326	0.1005229686479679	-0.04119072538669079	0.1324214269771191	-17.61979943229861	22.61307629573083	-5.931405504343839	5.945527551472329	-704.0740695581626	-20.85980231085126	-18.66422793811719	0.1982154420283275	-0.03205773137590201	0.01066476040229288	-0.2534828723078292	0.02427654856005801	-0.02336352381184453	0.05706492861787357	-0.1364339125050375	-0.1364339125050549	0.01040873730914321	0.007298017399457074	-0.081856683279591	-0.00797984093615047	-8.477647835628029e-10	-3.299106363596387e-09	-3.68874060042821e-11	7.813634903368992e-10	-5.156120450921185e-09	-9.59011688956222e-10	-1.905489272151287e-10
0.51	0.01370338555551224	0.06505881813900165	0.9325677670413614	0.2498903576360963	-0.1812673596920148	-0.2242372536661201	-0.4092956891425142	0.2132199006533496	0.2132199006534481	0.03862464754490699	-0.03052043640588567	0.02562680977632416	0.1314927084878369	0.02757988038464244	0.07913031848134179	0.01736430124611737	-0.2020002367971152	0.003569583740377908	-0.02522576033642688	-0.04307416705785523	-0.1213790417622729	-0.1213790417622772	-0.01947057797370839	0.01243194928257667	0.0498761501653197	0.02660775330608607	-0.04672096887438212	0.08917772797036001	0.005680558755848477	-0.1144879961401674	0.09828776848119632	-0.04133115300196132	0.1326286351164353	-18.33658580451918	22.70034670609907	-5.831984089684147	6.138859311153919	-704.0390439199028	-20.78599381443995	-18.63593303892512	0.1952400360111844	-0.03514929909955522	0.009578970387590787	-0.2419653312671855	0.02341452923797117	-0.02029430315237887	0.06141070085565357	-0.1287276684686597	-0.128727668468049	0.01018945094690036	0.008060146443062015	-0.08280249370396178	-0.00943386440262454	-8.094872972435094e-10	-3.187530105711588e-09	-4.900856672603325e-11	7.308811294630439e-10	-5.125365133247925e-09	-8.973638149770196e-10	-1.816896289577285e-10
0.52	0.0139889978371642	0.06584831738666409	0.9327418887295484	0.2478582547128429	-0.1812304820030797	-0.2244905530423747	-0.4097233930402074	0.2119996607492804	0.2119996607492547	0.0384304700090467	-0.03039574457559296	0.02612137327665258	0.1317583001291107	0.02954266887178272	0.07876462996736786	0.01745912636522541	-0.204410864843034	0.003805786895290639	-0.0254329088938042	-0.04246462915244256	-0.1226631726605221	-0.1226631726605184	-0.01936416826585058	0.01250551763057066	0.04903286969409526	0.02650864890616013	-0.04694906505456766	0.08942757896212293	0.005596554004070123	-0.1128038836370691	0.09605256831439908	-0.04147158061714606	0.1328358432556052	-19.05468508553892	22.78747345562519	-5.732113094583363	6.337403916813931	-704.0212054174922	-20.7167153094565	-18.60717378220311	0.1983282676985953	-0.03793791102619552	0.009564628045195514	-0.2421027754506108	0.02408082011252525	-0.02191747348887474	0.05944496164631786	-0.1295139285305749	-0.1295139285305737	0.01131695582937203	0.006219772692543262	-0.08627465982536871	-0.01028684112696049	-8.042497820323446e-10	-3.1196659833381e-09	-4.177832397786134e-11	7.175373864784546e-10	-5.251426466433276e-09	-9.032412281254484e-10	-1.747353696340614e-10
0.53	0.0142942451417407	0.06663401319620299	0.9329169325286933	0.2458023220546636	-0.1811912420998035	-0.2247458959107889	-0.4101449479108462	0.2107667460882175	0.2107667460882706	0.03823738907240021	-0.03027034857386829	0.02660739288511178	0.1320228483337306	0.0315068764787259	0.07836964898290616	0.01754877781191332	-0.2067661718286456	0.004042432498155867	-0.02563467502030035	-0.04184445596359984	-0.1239140859856527	-0.1239140859856549	-0.01925042716068886	0.01257278446119167	0.04816743747270277	0.02639953319847918	-0.04714148889769481	0.08966103737257203	0.005517198495626151	-0.1111529829202438	0.09386531268707997	-0.04161448123550755	0.1330203727693209	-19.75671712173123	22.87475019170317	-5.634423956602288	6.528937485945159	-703.9877249261308	-20.6476228417887	-18.57795239221871	0.1954798336355842	-0.0410105012976086	0.008535991633236551	-0.2308203608283874	0.02349282076473156	-0.01915785668788878	0.06358685423841963	-0.1220289645345968	-0.1220289645360898	0.01164089040636527	0.006845481821655437	-0.0872198882491973	-0.01144225092049163	-7.69887873152566e-10	-2.997935881463143e-09	-6.221742683179187e-11	7.008379645601866e-10	-5.143134498884059e-09	-8.490112889195925e-10	-1.59573668721927e-10
0.54	0.01461913708769976	0.06741561273406364	0.933092846960036	0.2437231211864999	-0.1811496284623043	-0.2250032267753914	-0.4105602443782492	0.2095214925079502	0.2095214925078786	0.03804549318718747	-0.03014430683487435	0.0270846496943563	0.1322862617182118	0.03347159714352763	0.07794537563171645	0.01763325280474282	-0.2090645068428268	0.004280533716636747	-0.02583050812511212	-0.04121294850514481	-0.1251309565119897	-0.1251309565119978	-0.01912715795355627	0.01263466503472525	0.04728030985316874	0.0262816848775466	-0.04733391274090164	0.08989449578303843	0.00543784298479108	-0.1095020822036649	0.0916780570597662	-0.04175738185381397	0.1332049022830008	-20.46001627406287	22.96187623868622	-5.536285248392764	6.725961887743652	-703.9705699832638	-20.58288293308864	-18.54827160288411	0.1984308792734944	-0.04379638437451131	0.008529337273500337	-0.2307083811641769	0.02437194323621939	-0.0207308691516726	0.06171181557053395	-0.1227053687712987	-0.1227053687712991	0.01322257622465071	0.005142521274987433	-0.09061373945648514	-0.0120333637779497	-7.033032308521931e-10	-2.816609376735498e-09	-1.132694226923042e-10	6.804258765876358e-10	-4.775558028394467e-09	-7.282795981728248e-10	-1.353313941374457e-10
0.55	0.01496367819560921	0.06819282448899543	0.9332695810589552	0.2416212192158374	-0.1811056256358008	-0.2252624921595991	-0.4109691706289547	0.2082642373958768	0.208264237395921	0.03785487963060957	-0.03001767807507692	0.02755292768496062	0.1325484543650645	0.03543619230084309	0.07749220590454184	0.01771270523710208	-0.211305819794799	0.004520236308506793	-0.02602150786638752	-0.04057005828638704	-0.1263141172046467	-0.1263141172046536	-0.01899395170413322	0.01269020213995952	0.04637190214328989	0.02615544243440503	-0.04748294909616579	0.09010496503767335	0.005364377609479633	-0.1079001587542776	0.0895602868378466	-0.04190135209876526	0.133362119932244	-21.14027381408113	23.04827534528674	-5.441277970025491	6.910692424964734	-703.9387022741535	-20.52036946477473	-18.51813393806806	0.1954091722548877	-0.04679255845813939	0.007523019867532606	-0.2193325626554109	0.02380066113425358	-0.01812550626572286	0.06591413247544074	-0.115229089298187	-0.1152290892985468	0.01360936783217957	0.005626643514808651	-0.09146238367368648	-0.01312953431966178	-6.664616243511676e-10	-2.652001574207874e-09	-1.288183870610389e-10	6.654175852142245e-10	-4.612929251156391e-09	-6.478807794108726e-10	-1.205481702503646e-10
